<?xml version="1.0" encoding="utf-8"?>
<!-- Generator: Adobe Illustrator 16.0.0, SVG Export Plug-In . SVG Version: 6.00 Build 0)  -->
<!DOCTYPE svg PUBLIC "-//W3C//DTD SVG 1.1//EN" "http://www.w3.org/Graphics/SVG/1.1/DTD/svg11.dtd">
<svg version="1.1" id="Layer_1" xmlns="http://www.w3.org/2000/svg" xmlns:xlink="http://www.w3.org/1999/xlink" x="0px" y="0px"
	 width="64px" height="64px" viewBox="0 0 64 64" enable-background="new 0 0 64 64" xml:space="preserve">
<path fill="#FCEE22" d="M24.825,10.9c-0.247,0.032-0.464,0.225-0.523,0.465l-1.958,7.215H5.316c-0.326,0-0.621,0.295-0.621,0.621
	v33.276c0,0.326,0.295,0.621,0.621,0.622h53.37c0.324,0,0.619-0.296,0.619-0.622V19.201c0-0.326-0.295-0.621-0.619-0.621H41.658
	l-1.959-7.215c-0.066-0.258-0.316-0.457-0.582-0.465H24.882H24.825L24.825,10.9z M25.368,12.142h13.263l1.961,7.214
	c0.068,0.265,0.328,0.465,0.6,0.465h16.873v32.037H5.936V19.82h16.872c0.273,0,0.533-0.2,0.602-0.465L25.368,12.142z M32,24.223
	c-6.504,0-11.792,5.307-11.792,11.81c0,6.506,5.287,11.791,11.792,11.791c6.503,0,11.791-5.285,11.791-11.791
	C43.791,29.528,38.504,24.223,32,24.223z M32,25.483c5.833,0,10.55,4.716,10.55,10.55c0,5.835-4.717,10.529-10.55,10.529
	c-5.834,0-10.551-4.696-10.551-10.529C21.45,30.199,26.166,25.483,32,25.483z M32,27.346c-4.791,0-8.688,3.895-8.688,8.688
	s3.899,8.688,8.688,8.688c4.789,0,8.687-3.895,8.687-8.688S36.789,27.346,32,27.346z M32,28.626c4.093,0,7.388,3.311,7.388,7.407
	S36.094,43.441,32,43.441c-4.094,0-7.389-3.312-7.389-7.408S27.906,28.626,32,28.626z"/>
</svg>
