<?xml version="1.0" encoding="utf-8"?>
<!-- Generator: Adobe Illustrator 16.0.0, SVG Export Plug-In . SVG Version: 6.00 Build 0)  -->
<!DOCTYPE svg PUBLIC "-//W3C//DTD SVG 1.1//EN" "http://www.w3.org/Graphics/SVG/1.1/DTD/svg11.dtd">
<svg version="1.1" id="Layer_1" xmlns="http://www.w3.org/2000/svg" xmlns:xlink="http://www.w3.org/1999/xlink" x="0px" y="0px"
	 width="128px" height="64px" viewBox="0 0 128 64" enable-background="new 0 0 128 64" xml:space="preserve">
<g>
	<path fill="#FCEE22" d="M48.406,15.842l-3.109-3.109l0.998-0.997l3.108,3.108l0.896-0.896l0.703,3.498l-3.498-0.703L48.406,15.842z
		 M54.901,20.235l0.896-0.896l-3.498-0.709l0.703,3.498l0.896-0.896l3.109,3.109l0.996-0.997L54.901,20.235z M54,24.816
		c0.079,1.094-1.015,1.941-1.895,2.624c-0.215,0.166-0.421,0.345-0.617,0.533c-0.663,0.712-1.203,1.528-1.6,2.416l-0.129,0.25
		c-0.176,0.342-0.33,0.71-0.49,1.094l0,0c-0.246,0.649-0.559,1.271-0.934,1.856l-0.271,0.389c-0.58,0.762-1.072,1.584-1.467,2.459
		c-0.166,0.41-0.32,0.836-0.475,1.252c-0.25,0.678-0.507,1.381-0.816,2.059c-0.144,0.32-0.266,0.666-0.4,1.035l0,0
		c-0.159,0.482-0.349,0.955-0.57,1.412c-0.321,0.697-0.568,1.424-0.736,2.172l-0.053,0.195c-0.502,1.893-1.067,3.734-1.466,5.148h0
		c-0.394,0.922-1.149,1.645-2.091,1.994c-0.877,0.381-1.827,0.572-2.784,0.559c-0.341,0-0.681-0.025-1.019-0.074
		c-1.7-0.213-3.214-1.182-4.122-2.635c-0.166-0.293-0.284-0.613-0.352-0.943c-0.043-0.146-0.059-0.297-0.048-0.449
		c-0.011-0.377,0.064-0.75,0.219-1.092c0.144-0.314,0.533-2.01,0.858-3.242c0.219-0.891,0.422-1.729,0.576-2.277v-0.076h0
		c0.318-0.906,0.459-1.865,0.416-2.824c-0.137-0.861-0.362-1.705-0.672-2.518l-0.117-0.342h0c-0.13-0.352-0.286-0.693-0.464-1.025
		c-0.106-0.207-0.214-0.414-0.309-0.639h0c-0.147-0.345-0.264-0.702-0.352-1.066c-0.043-0.165-0.085-0.319-0.133-0.469
		c-0.44-1.274-0.672-2.609-0.688-3.957c0.054-1.601,0.335-4.421,1.642-5.189c0.385-0.226,0.848-0.272,1.27-0.128l0.144-0.501
		c0.105-0.461,0.351-0.879,0.701-1.195c0.352-0.317,0.792-0.518,1.261-0.575c0.502-0.093,1.02-0.027,1.483,0.187
		c0.188-0.437,0.445-0.84,0.762-1.194c0.585-0.61,1.451-0.862,2.272-0.661c0.524,0.126,0.995,0.415,1.344,0.826
		c0.28-0.787,0.482-1.6,0.603-2.426c0.026-0.187,0.042-0.411,0.053-0.651c0.001-0.467,0.073-0.931,0.214-1.375
		c0.096-0.289,0.283-0.539,0.533-0.713c0.25-0.174,0.549-0.263,0.854-0.253c0.46-0.015,0.907,0.159,1.237,0.48
		c0.639,0.64,0.635,1.701,0.629,2.405v0.139c0,2.831-0.352,4.922-1.146,6.772l0,0c-0.375,0.84-0.427,1.79-0.145,2.666
		c0.156,0.437,0.362,0.854,0.613,1.242c0.041,0.063,0.085,0.124,0.133,0.182l0.048-0.048c0.362-0.428,0.688-0.887,0.972-1.37
		c0.25-0.4,0.507-0.812,0.853-1.27l0,0c0.73-1.028,1.786-1.78,2.997-2.133c1.562-0.374,2.56-0.353,3.13,0.069
		c0.305,0.203,0.502,0.531,0.539,0.896H54z M40.598,49.668c-0.016-0.324-0.14-0.631-0.352-0.873
		c-0.374-0.473-1.253-1.068-3.344-1.15c-2.938-0.139-3.733,0.354-3.882,0.535l0,0c-0.023,0.02-0.043,0.043-0.059,0.07
		c0.03,0.244,0.107,0.48,0.229,0.697c0.712,1.09,1.869,1.811,3.162,1.967c1.037,0.156,2.096,0.018,3.056-0.404
		C39.864,50.322,40.27,50.033,40.598,49.668L40.598,49.668z M52.687,24.944c-0.116-0.048-0.591-0.176-2.021,0.165l0,0
		c-0.918,0.288-1.713,0.874-2.262,1.664c-0.314,0.411-0.533,0.795-0.783,1.168l0,0c-0.321,0.545-0.688,1.061-1.099,1.541
		c-0.267,0.348-0.683,0.546-1.12,0.534c-0.489-0.086-0.911-0.394-1.141-0.832c-0.309-0.477-0.561-0.986-0.752-1.521
		c-0.394-1.188-0.333-2.479,0.17-3.626c0.72-1.68,1.066-3.61,1.066-6.256v-0.148c0-0.454,0-1.217-0.245-1.473h0
		c-0.084-0.075-0.197-0.11-0.309-0.096c-0.144,0-0.235,0.053-0.293,1.104c0,0.257-0.032,0.534-0.069,0.773l0,0
		c-0.17,1.271-0.539,2.508-1.094,3.663l-0.106,0.22v0.059c-0.069,0.154-0.144,0.331-0.224,0.533l0,0
		c-0.315,0.865-0.771,1.672-1.349,2.389c-0.247,0.266-0.663,0.279-0.928,0.032s-0.279-0.663-0.032-0.928
		c0.449-0.624,0.801-1.313,1.045-2.042l0.17-0.321c-0.211-0.38-0.528-0.69-0.912-0.895c-0.651-0.086-0.854-0.038-1.146,0.271
		c-0.4,0.532-0.699,1.135-0.88,1.775v0.118c-0.237,0.632-0.538,1.239-0.896,1.813c-0.123,0.214-0.25,0.432-0.363,0.646l0,0
		c-0.174,0.317-0.572,0.435-0.89,0.262c-0.318-0.175-0.436-0.573-0.262-0.891c0.123-0.229,0.256-0.454,0.378-0.672v-0.001
		c0.275-0.474,0.51-0.97,0.704-1.482c-0.016-0.032-0.04-0.06-0.069-0.08c-0.216-0.108-0.462-0.14-0.698-0.091
		c-0.465,0.035-0.847,0.38-0.928,0.838L35.02,24.3c-0.004,0.099-0.032,0.195-0.08,0.282c-0.293,1.002-0.635,2.133-0.757,2.518
		v-0.001c-0.119,0.348-0.499,0.533-0.846,0.414s-0.533-0.498-0.413-0.846c0.101-0.299,0.379-1.221,0.64-2.133
		c-0.144-0.054-0.203,0-0.235,0c-0.437,0.256-0.917,1.749-0.997,4.101h0c0.024,1.2,0.237,2.39,0.629,3.525
		c0.053,0.176,0.102,0.352,0.144,0.533c0.067,0.31,0.16,0.612,0.277,0.906c0.085,0.191,0.182,0.385,0.288,0.587
		c0.206,0.384,0.384,0.782,0.534,1.194l0.117,0.342c0.339,0.893,0.584,1.818,0.731,2.762c0.078,1.137-0.075,2.277-0.448,3.355v0.074
		c-0.144,0.533-0.346,1.359-0.565,2.244c-0.251,1.029-0.454,1.846-0.614,2.443c1.178-0.254,2.388-0.334,3.589-0.236
		c2.011,0.096,3.434,0.619,4.234,1.557c0.331-1.119,0.693-2.387,1.034-3.678l0.054-0.197c0.18-0.844,0.452-1.664,0.81-2.447
		c0.196-0.406,0.365-0.826,0.507-1.254c0.134-0.379,0.271-0.768,0.442-1.141c0.288-0.635,0.534-1.313,0.773-1.969
		c0.155-0.426,0.314-0.863,0.486-1.291h0c0.427-0.967,0.963-1.881,1.6-2.725l0.267-0.384c0.322-0.504,0.593-1.041,0.806-1.6
		c0.165-0.395,0.335-0.805,0.533-1.194l0.128-0.245l0,0c0.461-1.011,1.086-1.937,1.851-2.741c0.235-0.221,0.482-0.427,0.741-0.618
		C51.744,26.06,52.661,25.345,52.687,24.944L52.687,24.944z"/>
</g>
<g>
	<path fill="#FCEE22" d="M84.958,13.067c-1.479,0-2.684,1.371-2.684,3.056v9.588c-0.803-0.812-1.851-1.305-2.998-1.305
		c-0.436,0-0.788,0.354-0.788,0.789v9.292c0,2.206,0.636,4.375,1.792,6.105l0.468,0.7c0.984,1.475,1.526,3.332,1.526,5.229v2.834
		c0,0.868,0.708,1.576,1.578,1.576h12.622c0.871,0,1.576-0.708,1.576-1.576v-3.665l0.932-4.458C98.994,41.181,99,41.126,99,41.072
		v-11.34c0-1.685-1.205-3.057-2.684-3.057c-0.527,0-1.018,0.181-1.436,0.483c-0.453-0.957-1.33-1.617-2.352-1.617
		c-0.527,0-1.018,0.181-1.434,0.483c-0.454-0.958-1.331-1.618-2.352-1.618c-0.395,0-0.767,0.104-1.104,0.279v-8.562
		C87.64,14.438,86.437,13.067,84.958,13.067L84.958,13.067z M88.744,25.985c0.598,0,1.105,0.676,1.105,1.479V32
		c0,0.436,0.353,0.789,0.787,0.789c0.436,0,0.789-0.354,0.789-0.789v-3.402c0-0.802,0.506-1.479,1.105-1.479
		s1.105,0.677,1.105,1.479v1.134L93.635,32c0,0.436,0.352,0.789,0.789,0.789s0.787-0.354,0.787-0.789v-2.268
		c0-0.802,0.508-1.479,1.105-1.479c0.6,0,1.105,0.677,1.105,1.479v11.259l-0.932,4.456c-0.01,0.053-0.016,0.106-0.016,0.161v3.748
		H83.853v-2.832c0-2.208-0.636-4.376-1.792-6.106l-0.468-0.7c-0.984-1.475-1.526-3.332-1.526-5.229v-8.371
		c1.271,0.433,2.208,1.89,2.208,3.615v2.268c0,0.435,0.354,0.788,0.79,0.788c0.436,0,0.789-0.353,0.789-0.788l-0.001-15.876
		c0-0.803,0.506-1.48,1.105-1.48c0.598,0,1.104,0.677,1.104,1.48v15.876c0,0.435,0.353,0.788,0.788,0.788s0.789-0.353,0.789-0.788
		v-4.537C87.64,26.664,88.146,25.985,88.744,25.985L88.744,25.985z"/>
	<polygon fill="#FCEE22" points="79.764,15 75.077,16.375 75.077,13.625 	"/>
	<polygon fill="#FCEE22" points="90.243,15 94.93,16.375 94.93,13.625 	"/>
</g>
</svg>
