<?xml version="1.0" encoding="utf-8"?>
<!-- Generator: Adobe Illustrator 16.0.0, SVG Export Plug-In . SVG Version: 6.00 Build 0)  -->
<!DOCTYPE svg PUBLIC "-//W3C//DTD SVG 1.1//EN" "http://www.w3.org/Graphics/SVG/1.1/DTD/svg11.dtd">
<svg version="1.1" id="Layer_1" xmlns="http://www.w3.org/2000/svg" xmlns:xlink="http://www.w3.org/1999/xlink" x="0px" y="0px"
	 width="1024px" height="1024px" viewBox="0 0 1024 1024" enable-background="new 0 0 1024 1024" xml:space="preserve">
<g>
	<g>
		<polygon points="452.619,182.348 429.901,182.348 429.901,205.064 452.619,205.064 475.336,205.064 475.336,182.348 		"/>
		<path d="M816.094,182.348h-22.717H770.66h-22.717h-22.719H702.51h-22.719v22.717v22.718v22.717v22.717v22.717v22.717v22.718
			h22.719h22.715h22.719h22.717h22.717h22.717h22.717v-22.718v-22.717v-22.717v-22.717v-22.717v-22.718v-22.717H816.094z
			 M816.094,227.782v22.717v22.717v22.717v22.717h-22.717H770.66h-22.717h-22.719H702.51v-22.717v-22.717v-22.717v-22.717v-22.718
			h22.715h22.719h22.717h22.717h22.717V227.782z"/>
		<polygon points="384.467,205.064 384.467,227.782 407.184,227.782 429.901,227.782 429.901,205.064 407.184,205.064 		"/>
		<polygon points="498.054,205.064 475.336,205.064 475.336,227.782 452.619,227.782 452.619,250.5 452.619,273.217 
			475.336,273.217 475.336,250.5 498.054,250.5 498.054,227.782 520.771,227.782 520.771,205.064 		"/>
		<polygon points="543.488,227.782 566.205,227.782 588.922,227.782 588.922,250.5 611.639,250.5 611.639,227.782 611.639,205.064 
			588.922,205.064 588.922,182.348 566.205,182.348 543.488,182.348 520.771,182.348 520.771,205.064 543.488,205.064 		"/>
		<rect x="520.771" y="227.782" width="22.717" height="22.717"/>
		<polygon points="747.943,227.782 725.225,227.782 725.225,250.5 725.225,273.217 725.225,295.934 747.943,295.934 770.66,295.934 
			793.377,295.934 793.377,273.217 793.377,250.5 793.377,227.782 770.66,227.782 		"/>
		<polygon points="270.882,295.934 293.6,295.934 293.6,273.217 293.6,250.5 293.6,227.782 270.882,227.782 248.165,227.782 
			225.447,227.782 225.447,250.5 225.447,273.217 225.447,295.934 248.165,295.934 		"/>
		<polygon points="407.184,295.934 407.184,273.217 384.467,273.217 384.467,250.5 361.751,250.5 361.751,273.217 361.751,295.934 
			384.467,295.934 		"/>
		<polygon points="543.488,295.934 566.205,295.934 566.205,318.651 588.922,318.651 588.922,295.934 611.639,295.934 
			634.355,295.934 657.074,295.934 657.074,273.217 657.074,250.5 657.074,227.782 657.074,205.064 634.355,205.064 
			634.355,227.782 634.355,250.5 634.355,273.217 611.639,273.217 588.922,273.217 588.922,250.5 566.205,250.5 543.488,250.5 
			543.488,273.217 520.771,273.217 520.771,295.934 520.771,318.651 543.488,318.651 		"/>
		<path d="M225.447,341.368h22.718h22.716h22.717h22.717h22.717v-22.717v-22.717v-22.717v-22.717v-22.717v-22.72v-22.717h-22.717
			h-22.717h-22.717h-22.716h-22.718H202.73h-22.718v22.717v22.718v22.717v22.717v22.717v22.717v22.718h22.718L225.447,341.368
			L225.447,341.368z M202.73,295.934v-22.717V250.5v-22.717v-22.719h22.717h22.718h22.716h22.717h22.717v22.718v22.717v22.717
			v22.717v22.717h-22.717h-22.717h-22.716h-22.718H202.73V295.934z"/>
		<rect x="361.751" y="318.651" width="22.717" height="22.717"/>
		<polygon points="452.619,341.368 475.336,341.368 475.336,318.651 475.336,295.934 452.619,295.934 429.901,295.934 
			429.901,318.651 452.619,318.651 		"/>
		<polygon points="566.205,318.651 543.488,318.651 543.488,341.368 520.771,341.368 520.771,318.651 498.054,318.651 
			498.054,341.368 498.054,364.086 520.771,364.086 543.488,364.086 566.205,364.086 566.205,341.368 		"/>
		<rect x="588.922" y="318.651" width="22.717" height="22.717"/>
		<rect x="634.355" y="318.651" width="22.719" height="22.717"/>
		<polygon points="452.619,341.368 429.901,341.368 429.901,318.651 407.184,318.651 407.184,341.368 407.184,364.086 
			429.901,364.086 429.901,386.803 452.619,386.803 452.619,364.086 		"/>
		<polygon points="225.447,386.803 225.447,364.086 202.73,364.086 180.013,364.086 180.013,386.803 202.73,386.803 		"/>
		<polygon points="339.033,386.803 361.751,386.803 361.751,364.086 339.033,364.086 316.316,364.086 293.6,364.086 293.6,386.803 
			270.882,386.803 248.165,386.803 248.165,409.519 225.447,409.519 202.73,409.519 180.013,409.519 180.013,432.236 
			202.73,432.236 225.447,432.236 225.447,454.954 202.73,454.954 180.013,454.954 180.013,477.671 180.013,500.389 202.73,500.389 
			202.73,477.671 225.447,477.671 248.165,477.671 248.165,454.954 270.882,454.954 270.882,477.671 293.6,477.671 293.6,454.954 
			293.6,432.236 270.882,432.236 270.882,409.519 293.6,409.519 316.316,409.519 316.316,386.803 		"/>
		<polygon points="384.467,386.803 361.751,386.803 361.751,409.519 384.467,409.519 407.184,409.519 407.184,386.803 
			407.184,364.086 384.467,364.086 		"/>
		<polygon points="747.943,364.086 725.225,364.086 725.225,386.803 725.225,409.519 747.943,409.519 747.943,386.803 
			770.66,386.803 770.66,364.086 		"/>
		<polygon points="634.355,409.519 634.355,386.803 634.355,364.086 611.639,364.086 611.639,386.803 588.922,386.803 
			588.922,364.086 566.205,364.086 566.205,386.803 543.488,386.803 543.488,409.519 520.771,409.519 498.054,409.519 
			498.054,386.803 475.336,386.803 452.619,386.803 452.619,409.519 475.336,409.519 475.336,432.236 452.619,432.236 
			452.619,454.954 429.901,454.954 429.901,477.671 452.619,477.671 475.336,477.671 498.054,477.671 498.054,454.954 
			498.054,432.236 520.771,432.236 520.771,454.954 543.488,454.954 543.488,477.671 566.205,477.671 566.205,454.954 
			566.205,432.236 588.922,432.236 611.639,432.236 611.639,409.519 		"/>
		<polygon points="793.377,409.519 816.094,409.519 816.094,386.803 793.377,386.803 770.66,386.803 770.66,409.519 		"/>
		<rect x="316.316" y="409.519" width="22.717" height="22.718"/>
		<rect x="407.184" y="409.519" width="22.718" height="22.718"/>
		<rect x="679.791" y="409.519" width="22.717" height="22.718"/>
		<polygon points="361.751,432.236 339.033,432.236 339.033,454.954 361.751,454.954 361.751,477.671 339.033,477.671 
			339.033,500.389 361.751,500.389 384.467,500.389 384.467,477.671 407.184,477.671 407.184,454.954 407.184,432.236 
			384.467,432.236 		"/>
		<polygon points="679.791,454.954 679.791,432.236 657.074,432.236 634.355,432.236 611.639,432.236 611.639,454.954 
			634.355,454.954 634.355,477.671 657.074,477.671 657.074,454.954 		"/>
		<polygon points="725.225,454.954 747.943,454.954 770.66,454.954 770.66,432.236 747.943,432.236 725.225,432.236 		"/>
		<rect x="316.316" y="454.954" width="22.717" height="22.717"/>
		<polygon points="816.094,477.671 793.377,477.671 793.377,500.389 816.094,500.389 838.811,500.389 838.811,477.671 
			838.811,454.954 816.094,454.954 		"/>
		<polygon points="520.771,500.389 520.771,523.105 543.488,523.105 566.205,523.105 566.205,500.389 543.488,500.389 
			543.488,477.671 520.771,477.671 		"/>
		<rect x="611.639" y="477.671" width="22.717" height="22.718"/>
		<polygon points="702.508,500.389 702.508,477.671 702.508,454.954 679.791,454.954 679.791,477.671 657.074,477.671 
			657.074,500.389 657.074,523.105 679.791,523.105 679.791,500.389 		"/>
		<rect x="725.225" y="477.671" width="22.719" height="22.718"/>
		<polygon points="293.6,500.389 270.882,500.389 270.882,523.105 270.882,545.823 248.165,545.823 248.165,523.105 
			248.165,500.389 225.447,500.389 225.447,523.105 202.73,523.105 180.013,523.105 180.013,545.823 202.73,545.823 
			225.447,545.823 225.447,568.541 225.447,591.258 202.73,591.258 202.73,568.541 180.013,568.541 180.013,591.258 
			180.013,613.975 180.013,636.691 180.013,659.408 202.73,659.408 202.73,636.691 202.73,613.975 225.447,613.975 248.165,613.975 
			248.165,591.258 248.165,568.541 270.882,568.541 293.6,568.541 293.6,545.823 293.6,523.105 316.316,523.105 339.033,523.105 
			339.033,500.389 316.316,500.389 		"/>
		<polygon points="747.943,500.389 747.943,523.105 770.66,523.105 770.66,545.823 747.943,545.823 747.943,568.541 770.66,568.541 
			770.66,591.258 793.377,591.258 816.094,591.258 816.094,613.975 838.811,613.975 838.811,591.258 838.811,568.541 
			816.094,568.541 793.377,568.541 793.377,545.823 793.377,523.105 793.377,500.389 770.66,500.389 		"/>
		<polygon points="611.639,523.105 611.639,545.823 634.355,545.823 634.355,568.541 611.639,568.541 588.922,568.541 
			588.922,591.258 566.205,591.258 566.205,613.975 588.922,613.975 611.639,613.975 634.355,613.975 657.074,613.975 
			657.074,591.258 657.074,568.541 657.074,545.823 657.074,523.105 634.355,523.105 		"/>
		<polygon points="725.225,523.105 702.508,523.105 679.791,523.105 679.791,545.823 702.508,545.823 725.225,545.823 
			747.943,545.823 747.943,523.105 		"/>
		<rect x="816.094" y="523.105" width="22.717" height="22.718"/>
		<rect x="316.316" y="545.823" width="22.717" height="22.717"/>
		<polygon points="452.619,545.823 452.619,523.105 475.336,523.105 475.336,500.389 452.619,500.389 429.901,500.389 
			407.184,500.389 407.184,523.105 429.901,523.105 429.901,545.823 429.901,568.541 452.619,568.541 		"/>
		<rect x="566.205" y="545.823" width="22.717" height="22.717"/>
		<polygon points="407.184,568.541 384.467,568.541 384.467,545.823 384.467,523.105 361.751,523.105 361.751,545.823 
			361.751,568.541 361.751,591.258 384.467,591.258 384.467,613.975 407.184,613.975 407.184,591.258 429.901,591.258 
			429.901,568.541 		"/>
		<polygon points="725.225,568.541 702.508,568.541 679.791,568.541 679.791,591.258 702.508,591.258 725.225,591.258 
			747.943,591.258 747.943,568.541 		"/>
		<polygon points="316.316,591.258 316.316,613.975 339.033,613.975 361.751,613.975 361.751,591.258 339.033,591.258 		"/>
		<rect x="429.901" y="591.258" width="22.718" height="22.717"/>
		<polygon points="543.488,591.258 566.205,591.258 566.205,568.541 543.488,568.541 520.771,568.541 498.054,568.541 
			475.336,568.541 452.619,568.541 452.619,591.258 475.336,591.258 498.054,591.258 520.771,591.258 520.771,613.975 
			520.771,636.691 543.488,636.691 566.205,636.691 566.205,613.975 543.488,613.975 		"/>
		<rect x="747.943" y="591.258" width="22.717" height="22.717"/>
		<polygon points="475.336,613.975 452.619,613.975 452.619,636.691 452.619,659.408 475.336,659.408 475.336,636.691 
			498.054,636.691 498.054,613.975 		"/>
		<polygon points="248.165,659.408 270.882,659.408 293.6,659.408 316.316,659.408 339.033,659.408 339.033,636.691 
			316.316,636.691 293.6,636.691 270.882,636.691 270.882,613.975 248.165,613.975 248.165,636.691 		"/>
		<polygon points="498.054,659.408 498.054,682.125 520.771,682.125 520.771,704.844 498.054,704.844 498.054,727.561 
			475.336,727.561 475.336,750.277 452.619,750.277 452.619,772.994 475.336,772.994 475.336,795.711 452.619,795.711 
			452.619,818.428 452.619,841.146 475.336,841.146 475.336,818.428 498.054,818.428 498.054,841.146 520.771,841.146 
			520.771,818.428 543.488,818.428 543.488,795.711 543.488,772.994 566.205,772.994 566.205,750.277 566.205,727.561 
			543.488,727.561 543.488,704.844 566.205,704.844 566.205,682.125 543.488,682.125 543.488,659.408 520.771,659.408 
			520.771,636.691 498.054,636.691 		"/>
		<rect x="566.205" y="636.691" width="22.717" height="22.717"/>
		<path d="M634.355,636.691h-22.715v22.717v22.717h-22.719v22.719v22.715h22.719v22.719h22.715h22.719v22.717h22.717v-22.717h22.717
			h22.717h22.717v22.717h-22.717h-22.717h-22.717v22.715v22.719v22.717h22.717h22.717v-22.717h-22.717v-22.717h22.717h22.717v22.717
			h22.719v22.719h22.715v-22.719v-22.717h22.717v-22.717h-22.715v-22.715H770.66v-22.719h-22.717v-22.717h22.717h22.717v-22.717
			H770.66V659.41h-22.717v-22.719h-22.719v-22.717H702.51h-22.719h-22.717v22.717H634.355z M679.791,659.408h22.717h22.717v22.717
			v22.719v22.715h-22.717h-22.717h-22.717v-22.715v-22.719v-22.717H679.791z"/>
		<polygon points="816.094,659.408 838.811,659.408 838.811,636.691 816.094,636.691 793.377,636.691 770.66,636.691 
			770.66,659.408 793.377,659.408 		"/>
		<path d="M293.6,682.125h-22.718h-22.717h-22.718H202.73h-22.718v22.719v22.715v22.719v22.717v22.715v22.719v22.717h22.718h22.717
			h22.718h22.716h22.717h22.717h22.717v-22.717v-22.717v-22.717v-22.715v-22.719v-22.717v-22.717h-22.717H293.6V682.125z
			 M316.316,727.561v22.717v22.717v22.717v22.717H293.6h-22.716h-22.717h-22.719H202.73v-22.717v-22.717v-22.715v-22.719v-22.717
			h22.717h22.718h22.716h22.717h22.717v22.717H316.316z"/>
		<rect x="679.791" y="682.125" width="22.717" height="22.719"/>
		<polygon points="452.619,704.844 475.336,704.844 475.336,682.125 452.619,682.125 429.901,682.125 407.184,682.125 
			407.184,659.408 407.184,636.691 384.467,636.691 384.467,659.408 361.751,659.408 361.751,682.125 361.751,704.844 
			361.751,727.561 384.467,727.561 384.467,704.844 407.184,704.844 429.901,704.844 429.901,727.561 452.619,727.561 		"/>
		<polygon points="248.165,727.561 225.447,727.561 225.447,750.277 225.447,772.994 225.447,795.711 248.165,795.711 
			270.882,795.711 293.6,795.711 293.6,772.994 293.6,750.277 293.6,727.561 270.882,727.561 		"/>
		<polygon points="384.467,727.561 384.467,750.277 407.184,750.277 407.184,772.994 429.901,772.994 429.901,750.277 
			429.901,727.561 407.184,727.561 		"/>
		<polygon points="816.094,772.994 838.811,772.994 838.811,750.277 838.811,727.561 838.811,704.844 816.094,704.844 
			816.094,727.561 793.377,727.561 793.377,750.277 816.094,750.277 		"/>
		<rect x="384.467" y="772.994" width="22.715" height="22.717"/>
		<polygon points="588.922,772.994 588.922,795.711 588.922,818.428 566.205,818.428 566.205,841.146 588.922,841.146 
			611.639,841.146 634.355,841.146 634.355,818.428 634.355,795.711 634.355,772.994 611.639,772.994 		"/>
		<rect x="816.094" y="795.711" width="22.717" height="22.717"/>
		<polygon points="384.467,818.428 384.467,795.711 361.751,795.711 361.751,818.428 361.751,841.146 384.467,841.146 
			407.184,841.146 429.901,841.146 429.901,818.428 429.901,795.711 407.184,795.711 407.184,818.428 		"/>
	</g>
	<g>
		<path d="M916.539,916.539H107.461V107.461h809.078V916.539z M148.461,875.539h727.078V148.461H148.461V875.539z"/>
	</g>
</g>
</svg>
