<?xml version="1.0" encoding="utf-8"?>
<!-- Generator: Adobe Illustrator 16.0.0, SVG Export Plug-In . SVG Version: 6.00 Build 0)  -->
<!DOCTYPE svg PUBLIC "-//W3C//DTD SVG 1.1//EN" "http://www.w3.org/Graphics/SVG/1.1/DTD/svg11.dtd">
<svg version="1.1" id="Layer_1" xmlns="http://www.w3.org/2000/svg" xmlns:xlink="http://www.w3.org/1999/xlink" x="0px" y="0px"
	 width="96px" height="42px" viewBox="0 0 96 42" enable-background="new 0 0 96 42" xml:space="preserve">
<rect x="-0.016" y="-0.037" fill="#FCEE22" width="96.032" height="42.073"/>
<g>
	<path d="M32.331,23.444c0,0.699-0.179,1.316-0.537,1.853c-0.357,0.535-0.875,0.957-1.553,1.262
		c-0.677,0.305-1.493,0.457-2.447,0.457c-1.011,0-1.874-0.148-2.59-0.449c-0.716-0.299-1.315-0.686-1.799-1.156l1.216-1.358
		c0.416,0.372,0.883,0.662,1.399,0.87c0.516,0.209,1.096,0.313,1.739,0.313c0.405,0,0.771-0.063,1.096-0.188
		c0.324-0.125,0.581-0.309,0.77-0.55s0.283-0.54,0.283-0.895c0-0.312-0.065-0.575-0.195-0.791c-0.131-0.217-0.357-0.409-0.679-0.579
		c-0.322-0.169-0.771-0.34-1.349-0.512c-0.855-0.261-1.558-0.55-2.106-0.866c-0.55-0.316-0.956-0.689-1.22-1.12
		s-0.396-0.939-0.396-1.528c0-0.666,0.185-1.239,0.554-1.719c0.369-0.48,0.867-0.851,1.494-1.112
		c0.627-0.261,1.329-0.391,2.106-0.391c0.86,0,1.616,0.124,2.269,0.371s1.226,0.601,1.72,1.062l-1.157,1.315
		c-0.395-0.338-0.819-0.588-1.274-0.75c-0.455-0.161-0.921-0.241-1.398-0.241c-0.366,0-0.692,0.048-0.979,0.146
		s-0.511,0.242-0.674,0.433c-0.164,0.191-0.246,0.434-0.246,0.729c0,0.272,0.075,0.502,0.225,0.691
		c0.15,0.189,0.409,0.364,0.779,0.524c0.368,0.161,0.875,0.342,1.519,0.542c0.688,0.211,1.291,0.462,1.808,0.753
		c0.516,0.292,0.915,0.667,1.198,1.124C32.189,22.141,32.331,22.728,32.331,23.444z"/>
	<path d="M39.174,17.066v9.691h-2.331v-9.691h-3.347v-1.824h9.125l-0.241,1.824H39.174z"/>
	<path d="M49.857,24.135h-3.739l-0.708,2.623h-2.406l3.589-11.515h2.856l3.596,11.515h-2.488L49.857,24.135z M46.535,22.395h2.897
		l-1.449-5.42L46.535,22.395z"/>
	<path d="M62.238,18.657c0,0.555-0.111,1.041-0.33,1.457c-0.219,0.416-0.514,0.764-0.887,1.044c-0.371,0.28-0.787,0.501-1.248,0.662
		l3.139,4.938h-2.664l-2.697-4.571h-1.018v4.571h-2.33V15.243h3.414c1.525,0,2.678,0.282,3.455,0.845S62.238,17.507,62.238,18.657z
		 M59.814,18.657c0-0.611-0.178-1.053-0.533-1.328s-0.891-0.412-1.605-0.412h-1.143v3.63h1.217c0.666,0,1.176-0.148,1.531-0.446
		C59.637,19.804,59.814,19.323,59.814,18.657z"/>
	<path d="M69.148,17.066v9.691h-2.332v-9.691h-3.348v-1.824h9.127l-0.242,1.824H69.148z"/>
</g>
</svg>
